<svg xmlns="http://www.w3.org/2000/svg" width="119" height="40" fill="none"><path fill="#14141B" d="M8.447 39.125c-.305 0-.602-.004-.904-.01a12.696 12.696 0 0 1-1.87-.164 5.884 5.884 0 0 1-1.656-.548 5.406 5.406 0 0 1-1.397-1.016A5.321 5.321 0 0 1 1.6 35.99a5.722 5.722 0 0 1-.544-1.657 12.414 12.414 0 0 1-.166-1.875c-.007-.21-.015-.913-.015-.913v-23.1s.009-.692.015-.895a12.37 12.37 0 0 1 .165-1.872A5.756 5.756 0 0 1 1.6 4.016c.26-.518.603-.99 1.015-1.398A5.565 5.565 0 0 1 5.669 1.05C6.29.95 6.917.895 7.545.887l.902-.012h102.769l.913.013a12.37 12.37 0 0 1 1.858.162 5.933 5.933 0 0 1 1.671.548 5.589 5.589 0 0 1 2.415 2.42 5.74 5.74 0 0 1 .535 1.649c.104.624.162 1.255.174 1.887.003.283.003.588.003.89.008.375.008.732.008 1.092v20.929c0 .363 0 .718-.008 1.075 0 .325 0 .623-.004.93-.011.62-.069 1.24-.171 1.853a5.716 5.716 0 0 1-.54 1.67 5.47 5.47 0 0 1-1.015 1.386 5.414 5.414 0 0 1-1.4 1.022 5.855 5.855 0 0 1-1.668.55c-.618.101-1.243.156-1.869.163-.293.007-.599.011-.897.011l-1.084.002-101.69-.002z"/><path fill="#fff" d="M24.77 20.301a4.947 4.947 0 0 1 2.357-4.152 5.065 5.065 0 0 0-3.992-2.157c-1.679-.177-3.307 1.004-4.163 1.004-.872 0-2.19-.987-3.608-.958a5.315 5.315 0 0 0-4.473 2.728c-1.934 3.349-.491 8.27 1.361 10.976.927 1.326 2.01 2.806 3.428 2.753 1.387-.057 1.905-.884 3.58-.884 1.658 0 2.144.884 3.59.851 1.489-.024 2.426-1.331 3.32-2.669a10.963 10.963 0 0 0 1.52-3.092 4.782 4.782 0 0 1-2.92-4.4zm-2.73-8.09a4.872 4.872 0 0 0 1.114-3.49 4.957 4.957 0 0 0-3.207 1.66 4.635 4.635 0 0 0-1.144 3.36 4.099 4.099 0 0 0 3.236-1.53zM42.305 27.14H37.57l-1.136 3.356H34.43l4.483-12.418h2.083l4.483 12.418H43.44l-1.135-3.356zm-4.243-1.55h3.752l-1.85-5.446h-.052l-1.85 5.447zm17.099.38c0 2.813-1.506 4.62-3.778 4.62a3.068 3.068 0 0 1-2.849-1.584h-.043v4.485h-1.858V21.442h1.799v1.506h.034a3.21 3.21 0 0 1 2.883-1.6c2.298 0 3.812 1.816 3.812 4.622zm-1.91 0c0-1.833-.947-3.039-2.393-3.039-1.42 0-2.375 1.23-2.375 3.038 0 1.825.956 3.046 2.375 3.046 1.446 0 2.393-1.196 2.393-3.046zm11.875 0c0 2.813-1.506 4.62-3.778 4.62a3.07 3.07 0 0 1-2.849-1.584h-.043v4.485h-1.858V21.442h1.799v1.506h.034a3.21 3.21 0 0 1 2.883-1.6c2.297 0 3.812 1.816 3.812 4.621zm-1.91 0c0-1.834-.947-3.039-2.393-3.039-1.42 0-2.375 1.23-2.375 3.038 0 1.825.955 3.046 2.375 3.046 1.446 0 2.393-1.196 2.393-3.046zm8.495 1.066c.138 1.232 1.334 2.04 2.969 2.04 1.566 0 2.693-.808 2.693-1.919 0-.964-.68-1.54-2.289-1.936l-1.61-.388c-2.28-.55-3.338-1.617-3.338-3.348 0-2.142 1.867-3.614 4.518-3.614 2.624 0 4.423 1.472 4.484 3.614h-1.876c-.113-1.239-1.137-1.987-2.634-1.987-1.497 0-2.522.757-2.522 1.858 0 .878.655 1.395 2.255 1.79l1.368.336c2.548.603 3.607 1.626 3.607 3.443 0 2.323-1.85 3.778-4.794 3.778-2.754 0-4.613-1.42-4.733-3.667h1.902zM83.348 19.3v2.142h1.721v1.472h-1.721v4.991c0 .776.344 1.137 1.101 1.137a5.81 5.81 0 0 0 .612-.043v1.463c-.34.064-.687.092-1.033.086-1.833 0-2.547-.689-2.547-2.444v-5.19h-1.317v-1.472h1.316V19.3h1.868zm2.718 6.67c0-2.849 1.678-4.639 4.294-4.639 2.625 0 4.295 1.79 4.295 4.639 0 2.856-1.66 4.638-4.295 4.638-2.632 0-4.294-1.782-4.294-4.638zm6.696 0c0-1.954-.896-3.108-2.402-3.108-1.505 0-2.4 1.162-2.4 3.108 0 1.962.895 3.106 2.4 3.106 1.506 0 2.402-1.144 2.402-3.106zm3.426-4.528h1.772v1.541h.043a2.16 2.16 0 0 1 2.178-1.636c.214 0 .427.023.636.07v1.738a2.593 2.593 0 0 0-.835-.112 1.871 1.871 0 0 0-1.936 2.083v5.37h-1.859v-9.054zm13.198 6.395c-.25 1.643-1.851 2.771-3.899 2.771-2.633 0-4.268-1.764-4.268-4.595 0-2.84 1.643-4.682 4.19-4.682 2.505 0 4.08 1.72 4.08 4.466v.637h-6.394v.112a2.353 2.353 0 0 0 1.458 2.391c.31.127.643.186.977.173a2.05 2.05 0 0 0 2.091-1.273h1.765zm-6.282-2.702h4.526a2.173 2.173 0 0 0-2.221-2.298 2.292 2.292 0 0 0-2.305 2.298zM37.827 8.73a2.64 2.64 0 0 1 2.808 2.965c0 1.906-1.03 3.002-2.808 3.002h-2.155V8.73h2.155zM36.6 13.853h1.125a1.877 1.877 0 0 0 1.967-2.146 1.88 1.88 0 0 0-1.967-2.133H36.6v4.28zm5.082-1.409a2.134 2.134 0 1 1 4.247 0 2.134 2.134 0 1 1-4.247 0zm3.333 0c0-.976-.439-1.547-1.208-1.547-.773 0-1.207.57-1.207 1.547 0 .984.434 1.55 1.207 1.55.77 0 1.208-.57 1.208-1.55zm6.559 2.253h-.922l-.93-3.316h-.07l-.927 3.316h-.913l-1.242-4.503h.902l.806 3.436h.067l.925-3.436h.853l.926 3.436h.07l.803-3.436h.889l-1.237 4.503zm2.281-4.503h.856v.715h.066a1.348 1.348 0 0 1 1.344-.802 1.464 1.464 0 0 1 1.559 1.675v2.915h-.889v-2.692c0-.724-.314-1.084-.972-1.084a1.033 1.033 0 0 0-1.075 1.142v2.634h-.889v-4.503zm5.239-1.757h.888v6.26h-.888v-6.26zm2.123 4.007a2.133 2.133 0 1 1 4.248 0 2.134 2.134 0 1 1-4.248 0zm3.333 0c0-.976-.438-1.547-1.208-1.547-.772 0-1.207.57-1.207 1.547 0 .984.435 1.55 1.207 1.55.77 0 1.208-.57 1.208-1.55zm1.852.98c0-.81.604-1.278 1.675-1.344l1.22-.07v-.39c0-.475-.315-.743-.922-.743-.496 0-.84.182-.939.5h-.86c.091-.774.819-1.27 1.84-1.27 1.129 0 1.766.562 1.766 1.514v3.076h-.856v-.632h-.07a1.516 1.516 0 0 1-1.353.707 1.361 1.361 0 0 1-1.5-1.348zm2.895-.385v-.376l-1.1.07c-.62.041-.901.252-.901.65 0 .405.351.64.835.64a1.06 1.06 0 0 0 1.166-.984zm2.051-.595c0-1.423.731-2.324 1.869-2.324a1.484 1.484 0 0 1 1.38.79h.067V8.437h.889v6.26H74.7v-.711h-.07a1.563 1.563 0 0 1-1.414.785c-1.146 0-1.87-.9-1.87-2.327zm.918 0c0 .955.45 1.53 1.203 1.53.749 0 1.212-.583 1.212-1.526 0-.939-.468-1.53-1.212-1.53-.748 0-1.203.579-1.203 1.526zm6.967 0a2.133 2.133 0 1 1 4.247 0 2.134 2.134 0 1 1-4.247 0zm3.333 0c0-.976-.439-1.547-1.208-1.547-.773 0-1.207.57-1.207 1.547 0 .984.434 1.55 1.207 1.55.77 0 1.208-.57 1.208-1.55zm2.106-2.25h.855v.715h.067a1.348 1.348 0 0 1 1.344-.802 1.464 1.464 0 0 1 1.558 1.675v2.915h-.889v-2.692c0-.724-.314-1.084-.971-1.084a1.033 1.033 0 0 0-1.075 1.142v2.634h-.89v-4.503zm8.843-1.121v1.142h.975v.748h-.975v2.316c0 .472.194.678.636.678.114 0 .227-.007.34-.02v.74c-.16.028-.322.043-.484.045-.988 0-1.382-.348-1.382-1.216v-2.543h-.715v-.748h.715V9.073h.89zm2.192-.636h.88v2.481h.071a1.386 1.386 0 0 1 1.373-.807 1.485 1.485 0 0 1 1.551 1.679v2.907h-.89V12.01c0-.719-.335-1.083-.962-1.083a1.05 1.05 0 0 0-1.134 1.141v2.63h-.889v-6.26zm9.054 5.045a1.823 1.823 0 0 1-1.951 1.302 2.047 2.047 0 0 1-2.08-2.324 2.093 2.093 0 0 1 .071-.88 2.08 2.08 0 0 1 2.005-1.473c1.253 0 2.009.856 2.009 2.27v.31h-3.18v.05a1.19 1.19 0 0 0 1.2 1.29 1.077 1.077 0 0 0 1.071-.545h.855zm-3.126-1.452h2.275a1.094 1.094 0 0 0-.667-1.084 1.086 1.086 0 0 0-.442-.082 1.151 1.151 0 0 0-1.166 1.166z"/></svg>